<svg width="200" height="200" viewBox="0 0 200 200" fill="none" xmlns="http://www.w3.org/2000/svg">
<circle cx="100" cy="100" r="100" fill="#1E1D1D"/>
<g opacity="0.5" filter="url(#filter0_ddiif_283_2724)">
<circle cx="100.245" cy="99.6588" r="29.3803" stroke="#222222" stroke-width="5.45945" shape-rendering="crispEdges"/>
</g>
<g opacity="0.5" filter="url(#filter1_ddiif_283_2724)">
<circle cx="100.249" cy="99.6637" r="38.8554" stroke="#222222" stroke-width="5.45945" shape-rendering="crispEdges"/>
</g>
<g opacity="0.5" filter="url(#filter2_ddiif_283_2724)">
<circle cx="100.193" cy="99.6066" r="48.7816" stroke="#222222" stroke-width="5.45945" shape-rendering="crispEdges"/>
</g>
<g opacity="0.5" filter="url(#filter3_ddiif_283_2724)">
<circle cx="100.181" cy="99.5949" r="59.0087" stroke="#222222" stroke-width="5.45945" shape-rendering="crispEdges"/>
</g>
<g opacity="0.5" filter="url(#filter4_ddiif_283_2724)">
<circle cx="100.201" cy="99.6148" r="67.7318" stroke="#222222" stroke-width="5.45945" shape-rendering="crispEdges"/>
</g>
<circle cx="100.032" cy="99.7018" r="21.6573" fill="#F15D2E"/>
<path d="M186.426 99.6989C186.426 147.358 147.791 185.993 100.133 185.993C52.4739 185.993 13.8389 147.358 13.8389 99.6989C13.8389 52.0403 52.4739 13.4053 100.133 13.4053C147.791 13.4053 186.426 52.0403 186.426 99.6989Z" stroke="black" stroke-width="0.115262"/>
<path d="M193.477 104.709C193.388 106.063 193.029 107.03 192.399 107.61C191.779 108.2 190.958 108.461 189.938 108.394C189.476 108.364 189.039 108.266 188.626 108.101C188.223 107.937 187.865 107.682 187.553 107.336C187.25 107.001 187.022 106.567 186.87 106.034C186.717 105.502 186.666 104.853 186.716 104.087L186.779 103.13L183.04 102.885L183.186 100.662L193.697 101.352L193.477 104.709ZM191.659 104.471L191.726 103.455L188.605 103.25L188.556 103.986C188.529 104.408 188.559 104.775 188.647 105.086C188.735 105.398 188.891 105.645 189.116 105.827C189.34 106.009 189.639 106.113 190.012 106.137C190.532 106.171 190.924 106.054 191.188 105.786C191.462 105.518 191.619 105.08 191.659 104.471Z" fill="white"/>
<path d="M181.1 117.843L182.282 111.896L192.614 113.948L191.432 119.896L189.638 119.539L190.385 115.777L188.114 115.326L187.418 118.827L185.623 118.471L186.319 114.969L183.657 114.44L182.909 118.202L181.1 117.843Z" fill="white"/>
<path d="M187.909 131.99L186.161 131.401L187.575 127.207L179.34 124.431L180.052 122.32L190.034 125.685L187.909 131.99Z" fill="white"/>
<path d="M185.938 137.259L185.022 139.044L180.494 136.718C180.275 136.606 180.033 136.476 179.766 136.328C179.499 136.18 179.237 136.034 178.979 135.89C178.73 135.751 178.511 135.628 178.323 135.52C178.144 135.417 178.021 135.343 177.956 135.298L177.936 135.338L182.824 143.322L181.604 145.697L172.234 140.884L173.144 139.113L177.645 141.425C177.881 141.546 178.137 141.683 178.413 141.836C178.697 141.993 178.968 142.143 179.226 142.287C179.48 142.439 179.7 142.569 179.888 142.677C180.08 142.797 180.205 142.878 180.262 142.918L180.289 142.866L175.341 134.834L176.568 132.446L185.938 137.259Z" fill="white"/>
<path d="M174.636 153.269C174.884 152.926 175.038 152.57 175.098 152.201C175.152 151.84 175.118 151.476 174.995 151.108C174.88 150.746 174.678 150.388 174.388 150.033C174.093 149.686 173.722 149.352 173.275 149.03C172.669 148.592 172.099 148.29 171.564 148.122C171.032 147.969 170.54 147.971 170.086 148.129C169.632 148.286 169.227 148.613 168.87 149.107C168.617 149.458 168.406 149.834 168.239 150.234C168.065 150.643 167.903 151.102 167.753 151.612L166.234 150.516C166.353 150.031 166.509 149.58 166.702 149.161C166.895 148.743 167.156 148.306 167.484 147.852C168.117 146.974 168.82 146.378 169.594 146.063C170.369 145.761 171.182 145.711 172.032 145.912C172.889 146.119 173.757 146.539 174.634 147.172C175.28 147.638 175.807 148.152 176.215 148.713C176.63 149.28 176.913 149.872 177.062 150.489C177.205 151.114 177.206 151.752 177.064 152.401C176.917 153.059 176.61 153.711 176.144 154.357C175.838 154.78 175.477 155.162 175.061 155.504C174.646 155.86 174.206 156.167 173.741 156.426L172.692 154.777C173.074 154.568 173.439 154.34 173.787 154.093C174.129 153.855 174.412 153.58 174.636 153.269Z" fill="white"/>
<path d="M160.369 156.706L161.903 155.091L168.192 161.068L170.163 158.993L171.511 160.273L166.033 166.038L164.685 164.757L166.657 162.682L160.369 156.706Z" fill="white"/>
<path d="M159.645 171.783C158.59 172.636 157.636 173.028 156.783 172.959C155.929 172.903 155.18 172.478 154.537 171.682C154.246 171.323 154.021 170.936 153.862 170.52C153.71 170.112 153.654 169.676 153.697 169.212C153.737 168.762 153.901 168.3 154.189 167.827C154.477 167.354 154.919 166.876 155.516 166.394L156.262 165.791L153.905 162.877L155.638 161.476L162.261 169.668L159.645 171.783ZM158.587 170.286L159.379 169.646L157.412 167.214L156.838 167.677C156.509 167.943 156.26 168.214 156.091 168.49C155.922 168.766 155.847 169.048 155.865 169.337C155.884 169.625 156.011 169.915 156.246 170.206C156.573 170.611 156.925 170.82 157.302 170.832C157.684 170.851 158.113 170.669 158.587 170.286Z" fill="white"/>
<path d="M141.156 171.812L143.099 173.574L146.394 171.611L145.77 169.064L147.836 167.833L150.055 178.823L147.711 180.22L139.09 173.043L141.156 171.812ZM146.426 176.623C146.554 176.742 146.717 176.891 146.916 177.07C147.114 177.25 147.315 177.433 147.519 177.621C147.722 177.809 147.896 177.975 148.039 178.119C147.98 177.925 147.913 177.678 147.838 177.379C147.76 177.094 147.687 176.817 147.618 176.549C147.547 176.294 147.5 176.11 147.478 175.997L146.871 173.508L144.514 174.912L146.426 176.623Z" fill="white"/>
<path d="M127.745 179.931L125.926 175.446L127.923 174.637L129.076 177.481L136.254 174.571L140.212 184.333L138.147 185.17L134.888 177.13L131.292 178.588L134.551 186.628L132.487 187.465L129.194 179.343L127.745 179.931Z" fill="white"/>
<path d="M126.294 189.628L124.337 190.072L123.213 185.108C123.158 184.868 123.102 184.598 123.044 184.299C122.987 183.999 122.93 183.704 122.874 183.414C122.821 183.134 122.775 182.887 122.737 182.674C122.701 182.47 122.679 182.329 122.671 182.25L122.628 182.26L119.647 191.135L117.042 191.725L114.715 181.451L116.657 181.011L117.775 185.946C117.834 186.205 117.893 186.489 117.953 186.799C118.015 187.117 118.074 187.422 118.13 187.712C118.176 188.004 118.218 188.256 118.256 188.47C118.287 188.695 118.305 188.842 118.311 188.911L118.368 188.898L121.348 179.948L123.967 179.355L126.294 189.628Z" fill="white"/>
<path d="M107.315 186.391L109.492 182.187L111.965 182.015L109.298 186.844C109.591 186.942 109.888 187.094 110.188 187.3C110.489 187.516 110.746 187.808 110.959 188.178C111.173 188.558 111.299 189.032 111.339 189.601C111.406 190.572 111.11 191.337 110.448 191.896C109.788 192.465 108.83 192.792 107.574 192.88L104.159 193.117L103.428 182.609L105.651 182.454L105.931 186.487L107.315 186.391ZM107.359 191.061C107.741 191.034 108.067 190.967 108.335 190.86C108.594 190.753 108.79 190.597 108.924 190.39C109.048 190.184 109.098 189.919 109.076 189.596C109.044 189.135 108.866 188.777 108.543 188.524C108.21 188.28 107.73 188.181 107.102 188.224L106.057 188.297L106.255 191.138L107.359 191.061Z" fill="white"/>
<path d="M82.9978 180.934L85.1951 181.301L84.4464 185.783L88.5646 186.471L89.3133 181.989L91.5107 182.356L89.7751 192.746L87.5777 192.379L88.2583 188.305L84.1402 187.617L83.4595 191.691L81.2622 191.324L82.9978 180.934Z" fill="white"/>
<path d="M72.5959 177.972L72.5415 180.595L76.1856 181.792L77.6976 179.649L79.9822 180.4L73.1469 189.289L70.554 188.436L70.3114 177.221L72.5959 177.972ZM72.425 185.107C72.4195 185.281 72.4142 185.502 72.4091 185.769C72.404 186.037 72.3973 186.309 72.3892 186.586C72.381 186.863 72.3695 187.102 72.3548 187.304C72.463 187.133 72.6052 186.921 72.7814 186.668C72.9452 186.422 73.106 186.185 73.2637 185.957C73.4089 185.735 73.5171 185.58 73.5883 185.489L75.0679 183.397L72.461 182.54L72.425 185.107Z" fill="white"/>
<path d="M50.653 176.141C51.0199 175.535 51.53 175.177 52.1833 175.067C52.8365 174.956 53.5235 175.056 54.2442 175.366L54.2671 175.329C53.4936 174.745 53.0028 174.131 52.7946 173.488C52.573 172.848 52.6431 172.229 53.0049 171.632C53.3208 171.11 53.7466 170.73 54.2824 170.491C54.813 170.26 55.4289 170.202 56.1302 170.316C56.8314 170.431 57.5984 170.74 58.4313 171.245C59.1127 171.657 59.693 172.066 60.172 172.471C60.6426 172.871 61.023 173.269 61.3132 173.663L60.3424 175.266C60.1581 174.981 59.9299 174.694 59.6579 174.402C59.3807 174.119 59.0892 173.851 58.7832 173.597C58.4722 173.351 58.1737 173.141 57.8877 172.968C57.0884 172.484 56.4434 172.248 55.9525 172.261C55.448 172.278 55.0684 172.496 54.8136 172.917C54.5537 173.346 54.626 173.815 55.0304 174.325C55.4297 174.843 56.071 175.369 56.9543 175.904L57.7998 176.416L56.8978 177.905L56.1407 177.447C55.4256 177.013 54.8423 176.723 54.3909 176.576C53.9394 176.43 53.5803 176.396 53.3134 176.476C53.0466 176.556 52.8393 176.718 52.6915 176.962C52.5029 177.273 52.494 177.601 52.6646 177.946C52.8217 178.294 53.1736 178.633 53.7205 178.965C54.1832 179.245 54.6614 179.443 55.1551 179.558C55.6405 179.668 56.1261 179.72 56.6119 179.716L56.6727 181.495C56.2392 181.508 55.8066 181.482 55.3751 181.416C54.93 181.353 54.4742 181.232 54.0077 181.053C53.5361 180.883 53.0438 180.642 52.5306 180.331C51.8491 179.918 51.3273 179.47 50.965 178.986C50.6026 178.502 50.3972 178.015 50.3486 177.526C50.2866 177.04 50.3881 176.578 50.653 176.141Z" fill="white"/>
<path d="M46.2401 162.762L45.2419 165.187L48.2071 167.621L50.3913 166.169L52.2503 167.695L42.6654 173.513L40.5556 171.781L44.3811 161.236L46.2401 162.762ZM43.5032 169.353C43.4351 169.513 43.3504 169.717 43.249 169.965C43.1476 170.212 43.043 170.464 42.9354 170.719C42.8277 170.974 42.7305 171.193 42.6437 171.377C42.8065 171.256 43.0158 171.109 43.2714 170.937C43.5132 170.767 43.7487 170.604 43.978 170.449C44.1934 170.295 44.3507 170.188 44.4498 170.13L46.5851 168.714L44.4638 166.973L43.5032 169.353Z" fill="white"/>
<path d="M36.1991 152.629L37.6862 154.287L34.3027 157.321L37.0898 160.43L40.4733 157.396L41.9604 159.055L34.1169 166.087L32.6298 164.428L35.7057 161.671L32.9186 158.562L29.8427 161.319L28.3556 159.66L36.1991 152.629Z" fill="white"/>
<path d="M28.0889 148.463L32.8204 148.302L34.1814 150.374L28.6652 150.415C28.7232 150.718 28.7359 151.051 28.7035 151.413C28.6629 151.781 28.5336 152.149 28.3156 152.516C28.0894 152.888 27.738 153.231 27.2612 153.544C26.4474 154.079 25.6351 154.195 24.8241 153.892C24.005 153.594 23.2498 152.92 22.5584 151.868L20.6788 149.007L29.4824 143.222L30.7058 145.084L27.3274 147.304L28.0889 148.463ZM24.0387 150.789C24.2494 151.11 24.4673 151.361 24.6925 151.542C24.9123 151.715 25.1449 151.81 25.3904 151.825C25.6304 151.832 25.886 151.746 26.1573 151.568C26.5436 151.314 26.7681 150.984 26.8309 150.578C26.88 150.17 26.7317 149.702 26.386 149.176L25.8108 148.301L23.4311 149.864L24.0387 150.789Z" fill="white"/>
<path d="M25.3258 135.553L26.2845 137.564L18.4537 141.297L19.6853 143.881L18.0073 144.681L14.5854 137.502L16.2634 136.702L17.495 139.286L25.3258 135.553Z" fill="white"/>
<path d="M12.4705 132.701L11.8801 130.784L16.7446 129.286C16.9796 129.213 17.2443 129.137 17.5386 129.057C17.8329 128.976 18.1225 128.897 18.4074 128.82C18.6829 128.745 18.9255 128.681 19.1352 128.627C19.3355 128.575 19.4747 128.543 19.5528 128.529L19.5397 128.487L10.4646 126.187L9.67875 123.635L19.7463 120.535L20.3324 122.438L15.4961 123.927C15.2423 124.006 14.9635 124.086 14.6598 124.17C14.3467 124.256 14.0477 124.337 13.7628 124.415C13.475 124.483 13.2263 124.544 13.0166 124.598C12.7946 124.646 12.6492 124.675 12.5806 124.686L12.5979 124.743L21.7479 127.035L22.5381 129.601L12.4705 132.701Z" fill="white"/>
<path d="M17.8546 110.361L18.7619 116.357L8.34645 117.933L7.43918 111.937L9.24803 111.664L9.82197 115.456L12.1122 115.11L11.578 111.58L13.3868 111.306L13.921 114.836L16.6051 114.43L16.0312 110.637L17.8546 110.361Z" fill="white"/>
<path d="M6.78603 94.7151C6.87498 93.3606 7.2342 92.3936 7.86369 91.814C8.484 91.2239 9.30452 90.9624 10.3252 91.0294C10.7865 91.0597 11.2237 91.1574 11.6367 91.3225C12.0398 91.487 12.3976 91.7421 12.7101 92.0879C13.0133 92.4233 13.2411 92.8572 13.3934 93.3896C13.5457 93.922 13.5967 94.571 13.5465 95.3365L13.4836 96.2934L17.223 96.539L17.0769 98.762L6.56556 98.0716L6.78603 94.7151ZM8.6038 94.9527L8.53708 95.9685L11.6581 96.1735L11.7064 95.4374C11.7342 95.0154 11.704 94.6487 11.6161 94.3374C11.5281 94.026 11.3718 93.7792 11.1472 93.5969C10.9226 93.4146 10.6239 93.3112 10.2509 93.2867C9.73073 93.2525 9.33861 93.3697 9.07455 93.6382C8.80068 93.906 8.64376 94.3442 8.6038 94.9527Z" fill="white"/>
<path d="M19.2186 81.3184L18.0144 87.2613L7.69018 85.1692L8.89446 79.2263L10.6875 79.5896L9.92563 83.3491L12.1958 83.8092L12.9049 80.3099L14.6979 80.6733L13.9888 84.1725L16.6494 84.7117L17.4112 80.9521L19.2186 81.3184Z" fill="white"/>
<path d="M12.4403 67.1877L14.1856 67.7834L12.756 71.9722L20.9801 74.779L20.2605 76.8874L10.2911 73.4849L12.4403 67.1877Z" fill="white"/>
<path d="M14.2678 62.2521L15.1846 60.4673L19.7122 62.793C19.9309 62.9053 20.1737 63.0355 20.4404 63.1836C20.7071 63.3317 20.9695 63.4775 21.2274 63.6211C21.4767 63.7601 21.6953 63.8835 21.8833 63.9911C22.0625 64.0942 22.1849 64.1681 22.2504 64.2128L22.2706 64.1735L17.3822 56.1891L18.6023 53.8137L27.9725 58.6268L27.0624 60.3985L22.5611 58.0863C22.3249 57.965 22.069 57.828 21.7935 57.6755C21.5093 57.5184 21.2382 57.3681 20.9803 57.2245C20.7268 57.0722 20.506 56.9423 20.3181 56.8346C20.1258 56.7138 20.0013 56.6332 19.9446 56.593L19.9176 56.6455L24.8649 64.6767L23.638 67.0652L14.2678 62.2521Z" fill="white"/>
<path d="M25.4763 46.3378C25.2288 46.6807 25.0749 47.0367 25.0148 47.4057C24.9604 47.7668 24.9946 48.1311 25.1174 48.4987C25.2322 48.8606 25.4345 49.2189 25.7243 49.5737C26.0198 49.9205 26.3909 50.255 26.8375 50.5774C27.4436 51.0149 28.0138 51.3174 28.5481 51.4847C29.0801 51.6382 29.5729 51.6361 30.0265 51.4783C30.4801 51.3205 30.8853 50.9944 31.2422 50.4999C31.4955 50.149 31.7061 49.7733 31.8739 49.3728C32.0474 48.9644 32.2092 48.505 32.3593 47.9946L33.8785 49.0913C33.7595 49.5755 33.6034 50.0269 33.4104 50.4456C33.2173 50.8642 32.9568 51.3009 32.6286 51.7554C31.9954 52.6327 31.2921 53.2289 30.5187 53.544C29.7431 53.8454 28.9305 53.8957 28.0808 53.6948C27.2232 53.4881 26.3557 53.0682 25.4785 52.4349C24.8325 51.9686 24.3057 51.4549 23.898 50.8938C23.4823 50.3269 23.2 49.7349 23.051 49.1179C22.9078 48.4929 22.907 47.8554 23.0486 47.2055C23.1959 46.5477 23.5027 45.8958 23.969 45.2498C24.2741 44.8271 24.6351 44.4447 25.0518 44.1026C25.4664 43.7468 25.9064 43.4397 26.3719 43.1814L27.4202 44.8297C27.0384 45.0393 26.6736 45.2673 26.326 45.5137C25.984 45.7521 25.7008 46.0268 25.4763 46.3378Z" fill="white"/>
<path d="M39.7523 42.8422L38.2176 44.457L31.9294 38.4808L29.9576 40.5555L28.6102 39.2749L34.0884 33.5107L35.4358 34.7913L33.4641 36.866L39.7523 42.8422Z" fill="white"/>
<path d="M40.6999 27.5434C41.7585 26.6938 42.7141 26.3052 43.5667 26.3776C44.4209 26.4362 45.1681 26.8643 45.8084 27.6621C46.0977 28.0226 46.321 28.4109 46.4784 28.8269C46.6296 29.2353 46.6832 29.6714 46.6394 30.1354C46.5971 30.5855 46.4312 31.0466 46.1416 31.5187C45.852 31.9907 45.4081 32.4668 44.8097 32.947L44.0618 33.5472L46.4074 36.4698L44.67 37.8642L38.0765 29.6488L40.6999 27.5434ZM41.753 29.044L40.959 29.6812L42.9168 32.1205L43.4921 31.6588C43.8219 31.394 44.0719 31.1241 44.2419 30.8488C44.412 30.5736 44.4884 30.2916 44.471 30.0029C44.4537 29.7141 44.328 29.424 44.0941 29.1325C43.7678 28.7259 43.4165 28.5161 43.0401 28.5028C42.6576 28.4819 42.2286 28.6623 41.753 29.044Z" fill="white"/>
<path d="M58.886 27.7183L56.9433 25.9562L53.6478 27.9194L54.2723 30.4667L52.2063 31.6975L49.9865 20.7068L52.3314 19.3099L60.952 26.4875L58.886 27.7183ZM53.6155 22.9069C53.4877 22.7884 53.3246 22.6394 53.1261 22.46C52.9276 22.2806 52.7266 22.0969 52.5231 21.9091C52.3196 21.7212 52.1464 21.5553 52.0034 21.4115C52.0619 21.6057 52.1286 21.8521 52.2035 22.1509C52.2819 22.4363 52.3552 22.7131 52.4236 22.9816C52.4953 23.2365 52.5419 23.4205 52.5635 23.5336L53.1705 26.0227L55.528 24.6183L53.6155 22.9069Z" fill="white"/>
<path d="M72.1522 19.6154L73.9705 24.0999L71.9743 24.9093L70.8213 22.0654L63.6432 24.9757L59.6852 15.2136L61.7497 14.3765L65.0093 22.4159L68.6051 20.958L65.3456 12.9186L67.4101 12.0815L70.7029 20.203L72.1522 19.6154Z" fill="white"/>
<path d="M73.4889 9.87739L75.4458 9.434L76.5705 14.3981C76.6249 14.638 76.6809 14.9076 76.7387 15.2072C76.7965 15.5067 76.8532 15.8015 76.9088 16.0914C76.9623 16.3718 77.0081 16.6186 77.0463 16.8318C77.0824 17.0354 77.1043 17.1766 77.1121 17.2556L77.1553 17.2458L80.1365 8.37116L82.7409 7.78106L85.0687 18.0547L83.1262 18.4948L82.0079 13.5594C81.9493 13.3004 81.8899 13.0164 81.83 12.7072C81.7678 12.3885 81.709 12.0842 81.6534 11.7942C81.6073 11.5021 81.5652 11.2494 81.527 11.0362C81.4962 10.8113 81.478 10.6641 81.4724 10.5948L81.4148 10.6078L78.4355 19.5576L75.8167 20.151L73.4889 9.87739Z" fill="white"/>
<path d="M92.4389 13.042L90.2615 17.2457L87.7889 17.4177L90.4552 12.5884C90.1625 12.4905 89.866 12.3385 89.5658 12.1327C89.2648 11.917 89.0078 11.6243 88.7948 11.2546C88.5811 10.875 88.4544 10.4007 88.4148 9.83165C88.3473 8.86026 88.6441 8.09523 89.3052 7.53655C89.9657 6.96806 90.9239 6.64014 92.1799 6.55279L95.5944 6.3153L96.3253 16.8239L94.1029 16.9785L93.8224 12.9458L92.4389 13.042ZM92.3951 8.37168C92.0124 8.39829 91.6868 8.46531 91.4182 8.57273C91.1594 8.67946 90.9633 8.83606 90.8297 9.04254C90.706 9.24834 90.6554 9.51313 90.678 9.83693C90.71 10.2981 90.8877 10.6555 91.211 10.909C91.5434 11.1521 92.0236 11.2518 92.6515 11.2082L93.6965 11.1355L93.499 8.2949L92.3951 8.37168Z" fill="white"/>
<path d="M116.756 18.3772L114.559 18.0101L115.307 13.5282L111.189 12.8402L110.441 17.3222L108.243 16.9552L109.979 6.56511L112.176 6.93216L111.496 11.0067L115.614 11.6946L116.294 7.62008L118.492 7.98713L116.756 18.3772Z" fill="white"/>
<path d="M127.187 21.2659L127.241 18.6437L123.597 17.4458L122.085 19.5889L119.801 18.838L126.636 9.94969L129.229 10.802L129.471 22.0169L127.187 21.2659ZM127.358 14.1317C127.363 13.9575 127.369 13.7366 127.374 13.4691C127.379 13.2016 127.385 12.9294 127.394 12.6525C127.402 12.3757 127.413 12.1361 127.428 11.9339C127.32 12.1054 127.178 12.3175 127.001 12.5702C126.837 12.8166 126.677 13.0536 126.519 13.2814C126.374 13.5028 126.266 13.6588 126.194 13.7493L124.715 15.8409L127.322 16.6978L127.358 14.1317Z" fill="white"/>
<path d="M149.641 23.2856C149.272 23.8899 148.761 24.2461 148.107 24.3539C147.454 24.4618 146.767 24.3594 146.048 24.0467L146.024 24.0845C146.796 24.6709 147.284 25.2862 147.49 25.9305C147.709 26.5716 147.637 27.1901 147.273 27.786C146.955 28.3064 146.528 28.6852 145.991 28.9222C145.46 29.1508 144.844 29.2066 144.143 29.0898C143.442 28.9729 142.676 28.6607 141.845 28.1532C141.165 27.7379 140.587 27.3268 140.109 26.9199C139.64 26.5181 139.261 26.1195 138.972 25.7242L139.949 24.1252C140.132 24.41 140.359 24.6986 140.63 24.9909C140.906 25.2747 141.197 25.5444 141.502 25.7998C141.812 26.0469 142.11 26.2575 142.395 26.4318C143.193 26.9189 143.837 27.1567 144.328 27.1454C144.832 27.1309 145.213 26.9137 145.469 26.494C145.731 26.0659 145.66 25.5964 145.258 25.0855C144.86 24.5662 144.221 24.0374 143.339 23.4991L142.496 22.9839L143.403 21.4981L144.159 21.9595C144.872 22.3953 145.454 22.6875 145.905 22.8361C146.356 22.9847 146.715 23.0196 146.982 22.9408C147.249 22.8619 147.457 22.7008 147.606 22.4573C147.796 22.1468 147.806 21.8187 147.637 21.4733C147.481 21.1246 147.13 20.7836 146.584 20.4504C146.123 20.1684 145.645 19.9689 145.152 19.852C144.667 19.7403 144.182 19.6858 143.696 19.6887L143.642 17.9095C144.075 17.8978 144.508 17.9256 144.939 17.9931C145.384 18.0574 145.839 18.1799 146.305 18.3607C146.776 18.5331 147.267 18.7756 147.779 19.0883C148.459 19.5036 148.98 19.9539 149.34 20.4392C149.701 20.9244 149.904 21.4119 149.951 21.9014C150.011 22.3877 149.908 22.8491 149.641 23.2856Z" fill="white"/>
<path d="M154.064 36.6747L155.071 34.2529L152.115 31.8086L149.925 33.2527L148.072 31.7203L157.678 25.9368L159.781 27.676L155.917 38.2071L154.064 36.6747ZM156.825 30.0941C156.893 29.9339 156.979 29.7301 157.081 29.4829C157.184 29.2357 157.289 28.9847 157.398 28.7299C157.506 28.4751 157.604 28.2562 157.692 28.0732C157.528 28.1935 157.319 28.3391 157.062 28.5101C156.82 28.6798 156.584 28.8419 156.354 28.9965C156.138 29.1497 155.98 29.2554 155.881 29.3138L153.741 30.7218L155.855 32.4704L156.825 30.0941Z" fill="white"/>
<path d="M163.971 46.6628L162.484 45.004L165.867 41.9707L163.08 38.8619L159.697 41.8952L158.21 40.2364L166.053 33.2047L167.54 34.8634L164.464 37.621L167.251 40.7298L170.327 37.9722L171.814 39.631L163.971 46.6628Z" fill="white"/>
<path d="M172.147 50.8905L167.416 51.0512L166.055 48.9798L171.571 48.9388C171.513 48.6356 171.5 48.3027 171.533 47.9401C171.573 47.5721 171.703 47.2047 171.921 46.8379C172.147 46.4657 172.498 46.1229 172.975 45.8096C173.789 45.2749 174.601 45.159 175.412 45.4617C176.231 45.7591 176.987 46.4338 177.678 47.486L179.558 50.3466L170.754 56.1312L169.531 54.2694L172.909 52.0495L172.147 50.8905ZM176.198 48.5646C175.987 48.244 175.769 47.9929 175.544 47.8114C175.324 47.6381 175.091 47.5438 174.846 47.5285C174.606 47.5214 174.35 47.607 174.079 47.7853C173.693 48.0391 173.468 48.3691 173.405 48.7751C173.356 49.184 173.505 49.6515 173.85 50.1775L174.426 51.053L176.805 49.4893L176.198 48.5646Z" fill="white"/>
<path d="M174.923 63.8102L173.964 61.7992L181.795 58.0662L180.563 55.4826L182.241 54.6826L185.663 61.8609L183.985 62.6608L182.754 60.0772L174.923 63.8102Z" fill="white"/>
<path d="M187.755 66.5678L188.346 68.4855L183.481 69.9834C183.246 70.0558 182.981 70.1321 182.687 70.2124C182.393 70.2928 182.103 70.3716 181.818 70.4491C181.543 70.5236 181.3 70.588 181.09 70.6423C180.89 70.6937 180.751 70.7263 180.673 70.74L180.686 70.7823L189.761 73.0821L190.547 75.6343L180.479 78.7343L179.893 76.8308L184.73 75.3415C184.983 75.2634 185.262 75.1827 185.566 75.0995C185.879 75.0134 186.178 74.9316 186.463 74.8541C186.751 74.7861 186.999 74.725 187.209 74.6707C187.431 74.6229 187.576 74.5936 187.645 74.5827L187.628 74.5263L178.478 72.2341L177.687 69.6679L187.755 66.5678Z" fill="white"/>
<path d="M182.406 89.0065L181.498 83.0111L191.914 81.435L192.821 87.4304L191.012 87.7041L190.438 83.9114L188.148 84.258L188.682 87.7881L186.873 88.0619L186.339 84.5317L183.655 84.9379L184.229 88.7306L182.406 89.0065Z" fill="white"/>
<circle cx="100.249" cy="100.249" r="46.384" fill="#F15C2D"/>
<path d="M92.7153 102.623V87.3699C92.7153 86.656 92.9989 85.9714 93.5037 85.4666C94.0085 84.9618 94.6931 84.6782 95.407 84.6782C96.1209 84.6782 96.8055 84.9618 97.3103 85.4666C97.8151 85.9714 98.0987 86.656 98.0987 87.3699V100.828M98.0987 99.931V96.3421C98.0987 95.9887 98.1683 95.6386 98.3036 95.3121C98.4388 94.9855 98.6371 94.6888 98.887 94.4388C99.137 94.1889 99.4337 93.9906 99.7603 93.8553C100.087 93.7201 100.437 93.6505 100.79 93.6505C101.144 93.6505 101.494 93.7201 101.82 93.8553C102.147 93.9906 102.444 94.1889 102.694 94.4388C102.944 94.6888 103.142 94.9855 103.277 95.3121C103.412 95.6386 103.482 95.9887 103.482 96.3421V100.828M103.482 98.1366C103.482 97.4227 103.766 96.7381 104.27 96.2333C104.775 95.7285 105.46 95.4449 106.174 95.4449C106.888 95.4449 107.572 95.7285 108.077 96.2333C108.582 96.7381 108.865 97.4227 108.865 98.1366V100.828" stroke="white" stroke-width="1.62636" stroke-linecap="round" stroke-linejoin="round"/>
<path d="M108.865 99.9314C108.865 99.2175 109.149 98.5329 109.653 98.0281C110.158 97.5233 110.843 97.2397 111.557 97.2397C112.271 97.2397 112.955 97.5233 113.46 98.0281C113.965 98.5329 114.248 99.2175 114.248 99.9314V108.006C114.248 110.862 113.114 113.6 111.095 115.62C109.076 117.639 106.337 118.773 103.482 118.773H99.8928H100.266C98.483 118.773 96.7277 118.331 95.1579 117.485C93.5882 116.64 92.253 115.417 91.2723 113.928C91.1546 113.749 91.0373 113.57 90.9206 113.39C90.3607 112.53 88.3958 109.105 85.024 103.111C84.6803 102.5 84.5885 101.779 84.7681 101.102C84.9477 100.424 85.3846 99.8433 85.9858 99.4828C86.6262 99.0986 87.3767 98.9393 88.1179 99.0303C88.8592 99.1214 89.5488 99.4575 90.0772 99.9852L92.715 102.623" stroke="white" stroke-width="1.62636" stroke-linecap="round" stroke-linejoin="round"/>
<defs>
<filter id="filter0_ddiif_283_2724" x="64.3139" y="63.7272" width="71.8632" height="71.8634" filterUnits="userSpaceOnUse" color-interpolation-filters="sRGB">
<feFlood flood-opacity="0" result="BackgroundImageFix"/>
<feColorMatrix in="SourceAlpha" type="matrix" values="0 0 0 0 0 0 0 0 0 0 0 0 0 0 0 0 0 0 127 0" result="hardAlpha"/>
<feOffset dx="1.09189" dy="1.09189"/>
<feGaussianBlur stdDeviation="1.36486"/>
<feComposite in2="hardAlpha" operator="out"/>
<feColorMatrix type="matrix" values="0 0 0 0 0.0156863 0 0 0 0 0.0156863 0 0 0 0 0.0156863 0 0 0 1 0"/>
<feBlend mode="normal" in2="BackgroundImageFix" result="effect1_dropShadow_283_2724"/>
<feColorMatrix in="SourceAlpha" type="matrix" values="0 0 0 0 0 0 0 0 0 0 0 0 0 0 0 0 0 0 127 0" result="hardAlpha"/>
<feOffset dx="-1.09189" dy="-1.09189"/>
<feGaussianBlur stdDeviation="1.36486"/>
<feComposite in2="hardAlpha" operator="out"/>
<feColorMatrix type="matrix" values="0 0 0 0 0.156863 0 0 0 0 0.156863 0 0 0 0 0.156863 0 0 0 1 0"/>
<feBlend mode="normal" in2="effect1_dropShadow_283_2724" result="effect2_dropShadow_283_2724"/>
<feBlend mode="normal" in="SourceGraphic" in2="effect2_dropShadow_283_2724" result="shape"/>
<feColorMatrix in="SourceAlpha" type="matrix" values="0 0 0 0 0 0 0 0 0 0 0 0 0 0 0 0 0 0 127 0" result="hardAlpha"/>
<feOffset dx="-1.09189" dy="-1.09189"/>
<feGaussianBlur stdDeviation="1.36486"/>
<feComposite in2="hardAlpha" operator="arithmetic" k2="-1" k3="1"/>
<feColorMatrix type="matrix" values="0 0 0 0 0.0156863 0 0 0 0 0.0156863 0 0 0 0 0.0156863 0 0 0 1 0"/>
<feBlend mode="normal" in2="shape" result="effect3_innerShadow_283_2724"/>
<feColorMatrix in="SourceAlpha" type="matrix" values="0 0 0 0 0 0 0 0 0 0 0 0 0 0 0 0 0 0 127 0" result="hardAlpha"/>
<feOffset/>
<feGaussianBlur stdDeviation="0.909909"/>
<feComposite in2="hardAlpha" operator="arithmetic" k2="-1" k3="1"/>
<feColorMatrix type="matrix" values="0 0 0 0 0.156863 0 0 0 0 0.156863 0 0 0 0 0.156863 0 0 0 1 0"/>
<feBlend mode="normal" in2="effect3_innerShadow_283_2724" result="effect4_innerShadow_283_2724"/>
<feGaussianBlur stdDeviation="0.363963" result="effect5_foregroundBlur_283_2724"/>
</filter>
<filter id="filter1_ddiif_283_2724" x="54.8427" y="54.257" width="90.8134" height="90.8136" filterUnits="userSpaceOnUse" color-interpolation-filters="sRGB">
<feFlood flood-opacity="0" result="BackgroundImageFix"/>
<feColorMatrix in="SourceAlpha" type="matrix" values="0 0 0 0 0 0 0 0 0 0 0 0 0 0 0 0 0 0 127 0" result="hardAlpha"/>
<feOffset dx="1.09189" dy="1.09189"/>
<feGaussianBlur stdDeviation="1.36486"/>
<feComposite in2="hardAlpha" operator="out"/>
<feColorMatrix type="matrix" values="0 0 0 0 0.0156863 0 0 0 0 0.0156863 0 0 0 0 0.0156863 0 0 0 1 0"/>
<feBlend mode="normal" in2="BackgroundImageFix" result="effect1_dropShadow_283_2724"/>
<feColorMatrix in="SourceAlpha" type="matrix" values="0 0 0 0 0 0 0 0 0 0 0 0 0 0 0 0 0 0 127 0" result="hardAlpha"/>
<feOffset dx="-1.09189" dy="-1.09189"/>
<feGaussianBlur stdDeviation="1.36486"/>
<feComposite in2="hardAlpha" operator="out"/>
<feColorMatrix type="matrix" values="0 0 0 0 0.156863 0 0 0 0 0.156863 0 0 0 0 0.156863 0 0 0 1 0"/>
<feBlend mode="normal" in2="effect1_dropShadow_283_2724" result="effect2_dropShadow_283_2724"/>
<feBlend mode="normal" in="SourceGraphic" in2="effect2_dropShadow_283_2724" result="shape"/>
<feColorMatrix in="SourceAlpha" type="matrix" values="0 0 0 0 0 0 0 0 0 0 0 0 0 0 0 0 0 0 127 0" result="hardAlpha"/>
<feOffset dx="-1.09189" dy="-1.09189"/>
<feGaussianBlur stdDeviation="1.36486"/>
<feComposite in2="hardAlpha" operator="arithmetic" k2="-1" k3="1"/>
<feColorMatrix type="matrix" values="0 0 0 0 0.0156863 0 0 0 0 0.0156863 0 0 0 0 0.0156863 0 0 0 1 0"/>
<feBlend mode="normal" in2="shape" result="effect3_innerShadow_283_2724"/>
<feColorMatrix in="SourceAlpha" type="matrix" values="0 0 0 0 0 0 0 0 0 0 0 0 0 0 0 0 0 0 127 0" result="hardAlpha"/>
<feOffset/>
<feGaussianBlur stdDeviation="0.909909"/>
<feComposite in2="hardAlpha" operator="arithmetic" k2="-1" k3="1"/>
<feColorMatrix type="matrix" values="0 0 0 0 0.156863 0 0 0 0 0.156863 0 0 0 0 0.156863 0 0 0 1 0"/>
<feBlend mode="normal" in2="effect3_innerShadow_283_2724" result="effect4_innerShadow_283_2724"/>
<feGaussianBlur stdDeviation="0.363963" result="effect5_foregroundBlur_283_2724"/>
</filter>
<filter id="filter2_ddiif_283_2724" x="44.8598" y="44.2736" width="110.666" height="110.666" filterUnits="userSpaceOnUse" color-interpolation-filters="sRGB">
<feFlood flood-opacity="0" result="BackgroundImageFix"/>
<feColorMatrix in="SourceAlpha" type="matrix" values="0 0 0 0 0 0 0 0 0 0 0 0 0 0 0 0 0 0 127 0" result="hardAlpha"/>
<feOffset dx="1.09189" dy="1.09189"/>
<feGaussianBlur stdDeviation="1.36486"/>
<feComposite in2="hardAlpha" operator="out"/>
<feColorMatrix type="matrix" values="0 0 0 0 0.0156863 0 0 0 0 0.0156863 0 0 0 0 0.0156863 0 0 0 1 0"/>
<feBlend mode="normal" in2="BackgroundImageFix" result="effect1_dropShadow_283_2724"/>
<feColorMatrix in="SourceAlpha" type="matrix" values="0 0 0 0 0 0 0 0 0 0 0 0 0 0 0 0 0 0 127 0" result="hardAlpha"/>
<feOffset dx="-1.09189" dy="-1.09189"/>
<feGaussianBlur stdDeviation="1.36486"/>
<feComposite in2="hardAlpha" operator="out"/>
<feColorMatrix type="matrix" values="0 0 0 0 0.156863 0 0 0 0 0.156863 0 0 0 0 0.156863 0 0 0 1 0"/>
<feBlend mode="normal" in2="effect1_dropShadow_283_2724" result="effect2_dropShadow_283_2724"/>
<feBlend mode="normal" in="SourceGraphic" in2="effect2_dropShadow_283_2724" result="shape"/>
<feColorMatrix in="SourceAlpha" type="matrix" values="0 0 0 0 0 0 0 0 0 0 0 0 0 0 0 0 0 0 127 0" result="hardAlpha"/>
<feOffset dx="-1.09189" dy="-1.09189"/>
<feGaussianBlur stdDeviation="1.36486"/>
<feComposite in2="hardAlpha" operator="arithmetic" k2="-1" k3="1"/>
<feColorMatrix type="matrix" values="0 0 0 0 0.0156863 0 0 0 0 0.0156863 0 0 0 0 0.0156863 0 0 0 1 0"/>
<feBlend mode="normal" in2="shape" result="effect3_innerShadow_283_2724"/>
<feColorMatrix in="SourceAlpha" type="matrix" values="0 0 0 0 0 0 0 0 0 0 0 0 0 0 0 0 0 0 127 0" result="hardAlpha"/>
<feOffset/>
<feGaussianBlur stdDeviation="0.909909"/>
<feComposite in2="hardAlpha" operator="arithmetic" k2="-1" k3="1"/>
<feColorMatrix type="matrix" values="0 0 0 0 0.156863 0 0 0 0 0.156863 0 0 0 0 0.156863 0 0 0 1 0"/>
<feBlend mode="normal" in2="effect3_innerShadow_283_2724" result="effect4_innerShadow_283_2724"/>
<feGaussianBlur stdDeviation="0.363963" result="effect5_foregroundBlur_283_2724"/>
</filter>
<filter id="filter3_ddiif_283_2724" x="34.621" y="34.0348" width="131.12" height="131.12" filterUnits="userSpaceOnUse" color-interpolation-filters="sRGB">
<feFlood flood-opacity="0" result="BackgroundImageFix"/>
<feColorMatrix in="SourceAlpha" type="matrix" values="0 0 0 0 0 0 0 0 0 0 0 0 0 0 0 0 0 0 127 0" result="hardAlpha"/>
<feOffset dx="1.09189" dy="1.09189"/>
<feGaussianBlur stdDeviation="1.36486"/>
<feComposite in2="hardAlpha" operator="out"/>
<feColorMatrix type="matrix" values="0 0 0 0 0.0156863 0 0 0 0 0.0156863 0 0 0 0 0.0156863 0 0 0 1 0"/>
<feBlend mode="normal" in2="BackgroundImageFix" result="effect1_dropShadow_283_2724"/>
<feColorMatrix in="SourceAlpha" type="matrix" values="0 0 0 0 0 0 0 0 0 0 0 0 0 0 0 0 0 0 127 0" result="hardAlpha"/>
<feOffset dx="-1.09189" dy="-1.09189"/>
<feGaussianBlur stdDeviation="1.36486"/>
<feComposite in2="hardAlpha" operator="out"/>
<feColorMatrix type="matrix" values="0 0 0 0 0.156863 0 0 0 0 0.156863 0 0 0 0 0.156863 0 0 0 1 0"/>
<feBlend mode="normal" in2="effect1_dropShadow_283_2724" result="effect2_dropShadow_283_2724"/>
<feBlend mode="normal" in="SourceGraphic" in2="effect2_dropShadow_283_2724" result="shape"/>
<feColorMatrix in="SourceAlpha" type="matrix" values="0 0 0 0 0 0 0 0 0 0 0 0 0 0 0 0 0 0 127 0" result="hardAlpha"/>
<feOffset dx="-1.09189" dy="-1.09189"/>
<feGaussianBlur stdDeviation="1.36486"/>
<feComposite in2="hardAlpha" operator="arithmetic" k2="-1" k3="1"/>
<feColorMatrix type="matrix" values="0 0 0 0 0.0156863 0 0 0 0 0.0156863 0 0 0 0 0.0156863 0 0 0 1 0"/>
<feBlend mode="normal" in2="shape" result="effect3_innerShadow_283_2724"/>
<feColorMatrix in="SourceAlpha" type="matrix" values="0 0 0 0 0 0 0 0 0 0 0 0 0 0 0 0 0 0 127 0" result="hardAlpha"/>
<feOffset/>
<feGaussianBlur stdDeviation="0.909909"/>
<feComposite in2="hardAlpha" operator="arithmetic" k2="-1" k3="1"/>
<feColorMatrix type="matrix" values="0 0 0 0 0.156863 0 0 0 0 0.156863 0 0 0 0 0.156863 0 0 0 1 0"/>
<feBlend mode="normal" in2="effect3_innerShadow_283_2724" result="effect4_innerShadow_283_2724"/>
<feGaussianBlur stdDeviation="0.363963" result="effect5_foregroundBlur_283_2724"/>
</filter>
<filter id="filter4_ddiif_283_2724" x="25.9179" y="25.3317" width="148.566" height="148.566" filterUnits="userSpaceOnUse" color-interpolation-filters="sRGB">
<feFlood flood-opacity="0" result="BackgroundImageFix"/>
<feColorMatrix in="SourceAlpha" type="matrix" values="0 0 0 0 0 0 0 0 0 0 0 0 0 0 0 0 0 0 127 0" result="hardAlpha"/>
<feOffset dx="1.09189" dy="1.09189"/>
<feGaussianBlur stdDeviation="1.36486"/>
<feComposite in2="hardAlpha" operator="out"/>
<feColorMatrix type="matrix" values="0 0 0 0 0.0156863 0 0 0 0 0.0156863 0 0 0 0 0.0156863 0 0 0 1 0"/>
<feBlend mode="normal" in2="BackgroundImageFix" result="effect1_dropShadow_283_2724"/>
<feColorMatrix in="SourceAlpha" type="matrix" values="0 0 0 0 0 0 0 0 0 0 0 0 0 0 0 0 0 0 127 0" result="hardAlpha"/>
<feOffset dx="-1.09189" dy="-1.09189"/>
<feGaussianBlur stdDeviation="1.36486"/>
<feComposite in2="hardAlpha" operator="out"/>
<feColorMatrix type="matrix" values="0 0 0 0 0.156863 0 0 0 0 0.156863 0 0 0 0 0.156863 0 0 0 1 0"/>
<feBlend mode="normal" in2="effect1_dropShadow_283_2724" result="effect2_dropShadow_283_2724"/>
<feBlend mode="normal" in="SourceGraphic" in2="effect2_dropShadow_283_2724" result="shape"/>
<feColorMatrix in="SourceAlpha" type="matrix" values="0 0 0 0 0 0 0 0 0 0 0 0 0 0 0 0 0 0 127 0" result="hardAlpha"/>
<feOffset dx="-1.09189" dy="-1.09189"/>
<feGaussianBlur stdDeviation="1.36486"/>
<feComposite in2="hardAlpha" operator="arithmetic" k2="-1" k3="1"/>
<feColorMatrix type="matrix" values="0 0 0 0 0.0156863 0 0 0 0 0.0156863 0 0 0 0 0.0156863 0 0 0 1 0"/>
<feBlend mode="normal" in2="shape" result="effect3_innerShadow_283_2724"/>
<feColorMatrix in="SourceAlpha" type="matrix" values="0 0 0 0 0 0 0 0 0 0 0 0 0 0 0 0 0 0 127 0" result="hardAlpha"/>
<feOffset/>
<feGaussianBlur stdDeviation="0.909909"/>
<feComposite in2="hardAlpha" operator="arithmetic" k2="-1" k3="1"/>
<feColorMatrix type="matrix" values="0 0 0 0 0.156863 0 0 0 0 0.156863 0 0 0 0 0.156863 0 0 0 1 0"/>
<feBlend mode="normal" in2="effect3_innerShadow_283_2724" result="effect4_innerShadow_283_2724"/>
<feGaussianBlur stdDeviation="0.363963" result="effect5_foregroundBlur_283_2724"/>
</filter>
</defs>
</svg>
