<svg width="214" height="214" viewBox="0 0 214 214" fill="none" xmlns="http://www.w3.org/2000/svg">
<path d="M163 118C143.75 118 128 133.75 128 153C128 172.25 143.75 188 163 188C182.25 188 198 172.25 198 153C198 133.75 182.25 118 163 118ZM151.905 135.675C155.335 135.675 158.1 138.44 158.1 141.905C158.1 145.335 155.335 148.1 151.905 148.1C148.44 148.1 145.675 145.335 145.675 141.905C145.675 138.44 148.44 135.675 151.905 135.675ZM174.27 170.5C170.84 170.5 168.075 167.7 168.075 164.27C168.075 160.84 170.84 158.075 174.27 158.075C177.7 158.075 180.5 160.84 180.5 164.27C180.5 167.7 177.7 170.5 174.27 170.5ZM150.75 170.605L145.5 165.355L175.355 135.5L180.605 140.75L150.75 170.605Z" fill="white"/>
<path d="M67 15C47.75 15 32 30.75 32 50C32 69.25 47.75 85 67 85C86.25 85 102 69.25 102 50C102 30.75 86.25 15 67 15ZM55.905 32.675C59.335 32.675 62.1 35.44 62.1 38.905C62.1 42.335 59.335 45.1 55.905 45.1C52.44 45.1 49.675 42.335 49.675 38.905C49.675 35.44 52.44 32.675 55.905 32.675ZM78.27 67.5C74.84 67.5 72.075 64.7 72.075 61.27C72.075 57.84 74.84 55.075 78.27 55.075C81.7 55.075 84.5 57.84 84.5 61.27C84.5 64.7 81.7 67.5 78.27 67.5ZM54.75 67.605L49.5 62.355L79.355 32.5L84.605 37.75L54.75 67.605Z" fill="white"/>
<path d="M60.7817 187.039C58.1615 189.669 55.3145 191.951 52.2405 193.888C49.1665 195.764 46.3327 197.006 43.7392 197.614L39.375 186.398C41.7573 185.76 44.1541 184.776 46.5653 183.444C48.9464 182.082 50.9952 180.54 52.7119 178.817C54.1876 177.336 55.1057 176.143 55.4661 175.237C55.7963 174.301 55.6743 173.547 55.1001 172.975C54.4352 172.312 53.5149 172.239 52.3392 172.754C51.1936 173.238 49.4756 174.237 47.1854 175.749C44.2321 177.685 41.6552 179.183 39.4547 180.243C37.2239 181.273 34.8413 181.73 32.3068 181.613C29.7421 181.467 27.3113 180.249 25.0143 177.961C23.0196 175.973 21.7634 173.607 21.2457 170.862C20.728 168.118 21.1 165.175 22.3616 162.036C23.6533 158.865 25.8803 155.694 29.0426 152.52C31.211 150.344 33.576 148.454 36.1376 146.851C38.6991 145.187 41.2313 144.006 43.7342 143.308L48.279 154.251C43.6053 155.798 39.8831 157.962 37.1124 160.742C34.3718 163.493 33.6664 165.53 34.9962 166.856C35.6308 167.488 36.521 167.562 37.6666 167.077C38.782 166.562 40.4546 165.549 42.6845 164.036C45.5472 162.07 48.109 160.557 50.3699 159.497C52.6006 158.407 54.9831 157.92 57.5176 158.037C60.0822 158.123 62.513 159.31 64.8099 161.599C66.8046 163.587 68.0608 165.953 68.5785 168.697C69.066 171.412 68.679 174.369 67.4175 177.569C66.1559 180.709 63.9439 183.866 60.7817 187.039ZM60.811 120.64C63.8829 117.557 67.213 115.455 70.8012 114.332C74.3593 113.179 77.9645 113.128 81.6169 114.177C85.2692 115.166 88.7123 117.272 91.9461 120.495L108.856 137.345L98.1945 148.044L91.8023 141.674L81.7734 151.738L88.1656 158.108L77.6849 168.626L60.7752 151.775C57.5414 148.553 55.4084 145.132 54.3762 141.514C53.344 137.835 53.398 134.214 54.5382 130.652C55.6481 127.06 57.7391 123.723 60.811 120.64ZM83.7328 133.633L80.3781 130.29C78.4136 128.333 76.4659 127.325 74.5349 127.268C72.6038 127.151 70.8853 127.848 69.3795 129.359C67.8737 130.87 67.1677 132.606 67.2617 134.567C67.3555 136.468 68.3847 138.397 70.3492 140.354L73.7039 143.697L83.7328 133.633ZM82.0004 100.827L92.6617 90.1278L116.1 113.483L130.375 99.1577L138.671 107.425L113.734 132.449L82.0004 100.827ZM168.081 73.7402C167.271 76.3061 165.933 79.0388 164.068 81.9384C162.172 84.8079 159.99 87.4818 157.52 89.96C153.966 93.5263 150.532 96.1572 147.216 97.8525C143.9 99.4875 140.869 100.202 138.123 99.9955C135.347 99.759 132.992 98.677 131.058 96.7495C129.456 95.1533 128.442 93.2997 128.016 91.1885C127.62 89.0472 127.873 86.8292 128.774 84.5347C126.904 85.0811 125.124 85.1445 123.434 84.7251C121.744 84.2454 120.249 83.358 118.949 82.063C117.166 80.2861 116.106 78.0855 115.77 75.4614C115.433 72.7768 116.001 69.789 117.474 66.4979C118.976 63.1765 121.474 59.763 124.968 56.2571C127.106 54.1113 129.396 52.2065 131.837 50.5429C134.277 48.8189 136.628 47.4572 138.889 46.4576L143.795 57.1291C139.816 58.8256 136.396 61.1095 133.535 63.9806C131.667 65.8545 130.479 67.4706 129.968 68.8292C129.488 70.1575 129.625 71.1981 130.381 71.951C131.016 72.5835 131.725 72.8387 132.509 72.7166C133.293 72.5946 134.213 72.0046 135.267 70.9468L144.528 61.6533L152.416 69.5138L142.432 79.5327C141.257 80.7114 140.565 81.7987 140.356 82.7947C140.146 83.7303 140.389 84.5445 141.084 85.2372C142.716 86.8635 145.61 85.5913 149.767 81.4205C151.363 79.8187 152.838 77.9154 154.192 75.7106C155.545 73.4455 156.552 71.2564 157.212 69.1433L168.081 73.7402ZM185.543 61.8386C182.923 64.468 180.076 66.7508 177.002 68.6871C173.928 70.5631 171.094 71.805 168.5 72.413L164.136 61.1974C166.519 60.5597 168.915 59.5749 171.327 58.2432C173.708 56.8814 175.756 55.3391 177.473 53.6164C178.949 52.1355 179.867 50.9422 180.227 50.0364C180.558 49.1006 180.436 48.3465 179.861 47.7743C179.196 47.1117 178.276 47.0379 177.1 47.5529C175.955 48.0376 174.237 49.0363 171.947 50.5488C168.993 52.4848 166.416 53.9828 164.216 55.0426C161.985 56.0723 159.603 56.529 157.068 56.4128C154.503 56.2665 152.073 55.0489 149.776 52.76C147.781 50.7723 146.525 48.4061 146.007 45.6616C145.489 42.917 145.861 39.9748 147.123 36.8349C148.415 33.6648 150.642 30.493 153.804 27.3196C155.972 25.1436 158.337 23.2538 160.899 21.6503C163.46 19.9865 165.993 18.8054 168.495 18.1071L173.04 29.0508C168.367 30.5977 164.644 32.7614 161.874 35.5419C159.133 38.2921 158.428 40.3298 159.757 41.655C160.392 42.2874 161.282 42.3613 162.428 41.8766C163.543 41.3617 165.216 40.3481 167.446 38.8357C170.308 36.8696 172.87 35.3566 175.131 34.2967C177.362 33.2066 179.744 32.7197 182.279 32.836C184.843 32.922 187.274 34.1094 189.571 36.3983C191.566 38.386 192.822 40.7521 193.34 43.4967C193.827 46.2111 193.44 49.1684 192.179 52.3687C190.917 55.5086 188.705 58.6652 185.543 61.8386Z" fill="#DD5327"/>
</svg>
