<svg width="46" height="50" viewBox="0 0 46 50" fill="none" xmlns="http://www.w3.org/2000/svg">
<path d="M3.75 42.4996C3.75 44.3561 4.4875 46.1366 5.80025 47.4493C7.11301 48.7621 8.89348 49.4996 10.75 49.4996H20.8125C20.9285 49.4996 21.0398 49.4535 21.1219 49.3714C21.2039 49.2894 21.25 49.1781 21.25 49.0621V28.9371C21.25 28.821 21.2039 28.7098 21.1219 28.6277C21.0398 28.5457 20.9285 28.4996 20.8125 28.4996H4.625C4.39294 28.4996 4.17038 28.5918 4.00628 28.7559C3.84219 28.92 3.75 29.1425 3.75 29.3746V42.4996ZM21.25 24.5621V12.7496H24.75V24.5621C24.75 24.6781 24.7961 24.7894 24.8781 24.8714C24.9602 24.9535 25.0715 24.9996 25.1875 24.9996H40.5C41.0962 24.9996 41.688 24.8978 42.25 24.6988C43.2727 24.3357 44.158 23.6651 44.7847 22.7791C45.4113 21.893 45.7485 20.8348 45.75 19.7496V17.9996C45.75 16.6072 45.1969 15.2718 44.2123 14.2873C43.2277 13.3027 41.8924 12.7496 40.5 12.7496H36.0659C36.0278 12.749 35.9906 12.7384 35.9578 12.719C35.925 12.6995 35.8979 12.6719 35.8791 12.6387C35.8603 12.6056 35.8505 12.5681 35.8507 12.53C35.8508 12.4919 35.8609 12.4545 35.88 12.4215C36.8926 10.7118 37.2215 8.68253 36.8007 6.74055C36.3799 4.79857 35.2406 3.08745 33.6111 1.95029C31.9816 0.813135 29.9824 0.334015 28.0145 0.609002C26.0466 0.883988 24.2554 1.89275 23 3.43302C21.7446 1.89275 19.9534 0.883988 17.9855 0.609002C16.0176 0.334015 14.0184 0.813135 12.3889 1.95029C10.7594 3.08745 9.62007 4.79857 9.19927 6.74055C8.77848 8.68253 9.10737 10.7118 10.12 12.4215C10.1391 12.4545 10.1492 12.4919 10.1493 12.53C10.1495 12.5681 10.1397 12.6056 10.1209 12.6387C10.1021 12.6719 10.075 12.6995 10.0422 12.719C10.0094 12.7384 9.97216 12.749 9.93406 12.7496H5.5C4.10761 12.7496 2.77226 13.3027 1.78769 14.2873C0.803124 15.2718 0.25 16.6072 0.25 17.9996V19.7496C0.251545 20.8348 0.588738 21.893 1.21535 22.7791C1.84196 23.6651 2.7273 24.3357 3.75 24.6988C4.31199 24.8978 4.90381 24.9996 5.5 24.9996H20.8125C20.9285 24.9996 21.0398 24.9535 21.1219 24.8714C21.2039 24.7894 21.25 24.6781 21.25 24.5621ZM24.75 8.37458C24.75 7.50929 25.0066 6.66343 25.4873 5.94396C25.9681 5.2245 26.6513 4.66374 27.4508 4.33261C28.2502 4.00147 29.1299 3.91483 29.9785 4.08364C30.8272 4.25245 31.6067 4.66913 32.2186 5.28099C32.8304 5.89284 33.2471 6.67239 33.4159 7.52106C33.5847 8.36973 33.4981 9.24939 33.167 10.0488C32.8358 10.8482 32.2751 11.5315 31.5556 12.0123C30.8362 12.493 29.9903 12.7496 29.125 12.7496H24.75V8.37458ZM16.5622 4.01052C17.1616 3.96755 17.7634 4.04852 18.3301 4.24837C18.8968 4.44823 19.4162 4.76268 19.856 5.17213C20.2959 5.58158 20.6466 6.07724 20.8865 6.62822C21.1263 7.17919 21.25 7.77367 21.25 8.37458V12.7496H16.875C15.7437 12.7467 14.6576 12.3057 13.8444 11.5191C13.0313 10.7326 12.5545 9.66167 12.514 8.53112C12.4736 7.40056 12.8726 6.29828 13.6274 5.45561C14.3822 4.61294 15.434 4.0954 16.5622 4.01161V4.01052ZM25.1875 49.4996H35.25C37.1065 49.4996 38.887 48.7621 40.1997 47.4493C41.5125 46.1366 42.25 44.3561 42.25 42.4996V29.3746C42.25 29.1425 42.1578 28.92 41.9937 28.7559C41.8296 28.5918 41.6071 28.4996 41.375 28.4996H25.1875C25.0715 28.4996 24.9602 28.5457 24.8781 28.6277C24.7961 28.7098 24.75 28.821 24.75 28.9371V49.0621C24.75 49.1781 24.7961 49.2894 24.8781 49.3714C24.9602 49.4535 25.0715 49.4996 25.1875 49.4996Z" fill="white"/>
</svg>
