<svg width="30" height="31" viewBox="0 0 30 31" fill="none" xmlns="http://www.w3.org/2000/svg">
<path d="M15 0.739258C6.71572 0.739258 0 7.45498 0 15.7393C0 24.0235 6.71572 30.7393 15 30.7393C23.2843 30.7393 30 24.0235 30 15.7393C30 7.45498 23.2843 0.739258 15 0.739258ZM9.60938 6.69751C9.91843 6.67928 10.1978 6.86401 10.4095 7.19188L12.4603 11.081C12.6763 11.5419 12.5535 12.0353 12.2315 12.3646L11.2921 13.3039C11.2341 13.3834 11.196 13.4729 11.1951 13.5713C11.5553 14.9656 12.648 16.2518 13.6121 17.1363C14.5762 18.0208 15.6123 19.2184 16.9574 19.5021C17.1237 19.5484 17.3273 19.5651 17.4463 19.4545L18.5376 18.343C18.9143 18.0575 19.4593 17.9191 19.8615 18.1526H19.8798L23.5803 20.3371C24.1235 20.6775 24.1798 21.3357 23.7908 21.736L21.2421 24.2647C20.8657 24.6507 20.3656 24.7804 19.8798 24.781C17.7311 24.7166 15.7009 23.662 14.0333 22.5783C11.296 20.5869 8.78518 18.1171 7.20888 15.1332C6.60433 13.8819 5.89415 12.2854 5.96193 10.8888C5.96798 10.3634 6.11012 9.84871 6.48012 9.51006L9.02895 6.96123C9.2275 6.79228 9.42393 6.70846 9.60938 6.69751Z" fill="white"/>
</svg>
