<svg width="30" height="31" viewBox="0 0 30 31" fill="none" xmlns="http://www.w3.org/2000/svg">
<path d="M0.00602007 30.7324L2.03402 23.2804C0.697727 20.9897 -0.00433595 18.3844 2.01484e-05 15.7324C2.01484e-05 7.44792 6.71552 0.732422 15 0.732422C23.2845 0.732422 30 7.44792 30 15.7324C30 24.0169 23.2845 30.7324 15 30.7324C12.3492 30.7367 9.745 30.0352 7.45502 28.6999L0.00602007 30.7324ZM9.58651 8.69442C9.39281 8.70644 9.20353 8.75746 9.03001 8.84442C8.8673 8.93656 8.71876 9.05175 8.58901 9.18642C8.40901 9.35592 8.30702 9.50292 8.19752 9.64542C7.64313 10.3669 7.34493 11.2525 7.35002 12.1624C7.35302 12.8974 7.54502 13.6129 7.84502 14.2819C8.45852 15.6349 9.46801 17.0674 10.8015 18.3949C11.1225 18.7144 11.436 19.0354 11.7735 19.3339C13.4286 20.7911 15.4009 21.842 17.5335 22.4029L18.387 22.5334C18.6645 22.5484 18.942 22.5274 19.221 22.5139C19.6579 22.4914 20.0844 22.3731 20.4705 22.1674C20.6669 22.0662 20.8586 21.9561 21.045 21.8374C21.045 21.8374 21.1095 21.7954 21.2325 21.7024C21.435 21.5524 21.5595 21.4459 21.7275 21.2704C21.852 21.1414 21.96 20.9899 22.0425 20.8174C22.1595 20.5729 22.2765 20.1064 22.3245 19.7179C22.3605 19.4209 22.35 19.2589 22.3455 19.1584C22.3395 18.9979 22.206 18.8314 22.0605 18.7609L21.1875 18.3694C21.1875 18.3694 19.8825 17.8009 19.086 17.4379C19.002 17.4013 18.912 17.3805 18.8205 17.3764C18.7179 17.3659 18.6142 17.3774 18.5164 17.4103C18.4186 17.4431 18.329 17.4965 18.2535 17.5669V17.5639C18.246 17.5639 18.1455 17.6494 17.061 18.9634C16.9988 19.0471 16.913 19.1103 16.8147 19.145C16.7164 19.1797 16.61 19.1844 16.509 19.1584C16.4113 19.1323 16.3155 19.0992 16.2225 19.0594C16.0365 18.9814 15.972 18.9514 15.8445 18.8959L15.837 18.8929C14.9789 18.5182 14.1843 18.0122 13.482 17.3929C13.293 17.2279 13.1175 17.0479 12.9375 16.8739C12.3474 16.3088 11.8331 15.6694 11.4075 14.9719L11.319 14.8294C11.2554 14.7337 11.2041 14.6304 11.166 14.5219C11.109 14.3014 11.2575 14.1244 11.2575 14.1244C11.2575 14.1244 11.622 13.7254 11.7915 13.5094C11.9326 13.3299 12.0643 13.1431 12.186 12.9499C12.363 12.6649 12.4185 12.3724 12.3255 12.1459C11.9055 11.1199 11.4705 10.0984 11.0235 9.08442C10.935 8.88342 10.6725 8.73942 10.434 8.71092C10.353 8.70192 10.272 8.69292 10.191 8.68692C9.98957 8.67691 9.78772 8.67891 9.58651 8.69292V8.69442Z" fill="white"/>
</svg>
