<svg width="40" height="41" viewBox="0 0 40 41" fill="none" xmlns="http://www.w3.org/2000/svg">
<path d="M23.3396 20.3877L18.6604 18.2049C18.2521 18.0153 17.9167 18.2278 17.9167 18.6798V22.7913C17.9167 23.2433 18.2521 23.4557 18.6604 23.2662L23.3375 21.0834C23.7479 20.8917 23.7479 20.5793 23.3396 20.3877ZM20 0.740234C8.95417 0.740234 0 9.69229 0 20.7355C0 31.7788 8.95417 40.7308 20 40.7308C31.0458 40.7308 40 31.7788 40 20.7355C40 9.69229 31.0458 0.740234 20 0.740234ZM20 28.8586C9.7625 28.8586 9.58333 27.9359 9.58333 20.7355C9.58333 13.5351 9.7625 12.6124 20 12.6124C30.2375 12.6124 30.4167 13.5351 30.4167 20.7355C30.4167 27.9359 30.2375 28.8586 20 28.8586Z" fill="white"/>
</svg>
