<svg width="40" height="40" viewBox="0 0 40 40" fill="none" xmlns="http://www.w3.org/2000/svg">
<path d="M26.25 20.0002C26.25 21.6574 25.5915 23.2467 24.4194 24.4186C23.2473 25.5904 21.6576 26.2487 20 26.2487C18.3424 26.2487 16.7527 25.5904 15.5806 24.4186C14.4085 23.2467 13.75 21.6574 13.75 20.0002C13.75 19.644 13.7875 19.2962 13.8521 18.9588H11.6667V27.2839C11.6667 27.8629 12.1354 28.3315 12.7146 28.3315H27.2875C27.5651 28.331 27.8311 28.2204 28.0271 28.024C28.2232 27.8275 28.3333 27.5614 28.3333 27.2839V18.9588H26.1479C26.2125 19.2962 26.25 19.644 26.25 20.0002ZM20 24.1659C20.5473 24.1657 21.0892 24.0578 21.5948 23.8483C22.1004 23.6388 22.5598 23.3317 22.9467 22.9447C23.3336 22.5577 23.6405 22.0983 23.8498 21.5927C24.0591 21.0871 24.1668 20.5453 24.1667 19.9981C24.1665 19.4509 24.0586 18.9091 23.849 18.4036C23.6394 17.8982 23.3323 17.4389 22.9452 17.0521C22.5581 16.6653 22.0986 16.3585 21.5929 16.1492C21.0872 15.9399 20.5452 15.8323 19.9979 15.8324C18.8926 15.8327 17.8326 16.2719 17.0512 17.0535C16.2698 17.8352 15.831 18.8951 15.8312 20.0002C15.8315 21.1053 16.2709 22.165 17.0527 22.9462C17.8345 23.7274 18.8947 24.1661 20 24.1659ZM25 15.6262H27.4979C27.6639 15.6262 27.8231 15.5604 27.9406 15.4433C28.0581 15.3262 28.1244 15.1673 28.125 15.0014V12.504C28.125 12.3377 28.0589 12.1783 27.9413 12.0607C27.8237 11.9431 27.6642 11.8771 27.4979 11.8771H25C24.8337 11.8771 24.6742 11.9431 24.5566 12.0607C24.439 12.1783 24.3729 12.3377 24.3729 12.504V15.0014C24.375 15.345 24.6562 15.6262 25 15.6262ZM20 0.00488281C14.6957 0.00488281 9.60859 2.11152 5.85786 5.86137C2.10714 9.61121 0 14.6971 0 20.0002C0 25.3033 2.10714 30.3891 5.85786 34.139C9.60859 37.8888 14.6957 39.9955 20 39.9955C22.6264 39.9955 25.2272 39.4783 27.6537 38.4734C30.0802 37.4686 32.285 35.9957 34.1421 34.139C35.9993 32.2822 37.4725 30.078 38.4776 27.652C39.4827 25.2261 40 22.626 40 20.0002C40 17.3744 39.4827 14.7742 38.4776 12.3483C37.4725 9.92237 35.9993 7.7181 34.1421 5.86137C32.285 4.00463 30.0802 2.53179 27.6537 1.52693C25.2272 0.522076 22.6264 0.00488281 20 0.00488281ZM30.4167 28.1003C30.4167 29.373 29.375 30.4144 28.1021 30.4144H11.8979C10.625 30.4144 9.58333 29.373 9.58333 28.1003V11.9C9.58333 10.6274 10.625 9.58596 11.8979 9.58596H28.1021C29.375 9.58596 30.4167 10.6274 30.4167 11.9V28.1003Z" fill="white"/>
</svg>
