<svg width="40" height="41" viewBox="0 0 40 41" fill="none" xmlns="http://www.w3.org/2000/svg">
<path d="M24.5083 20.427C23.9638 20.0756 23.3745 19.7988 22.7563 19.6041C22.0122 19.3623 21.2564 19.1586 20.4917 18.9937C20.0176 18.8845 19.546 18.765 19.0771 18.6354C18.7913 18.5549 18.5148 18.4445 18.2521 18.3062C18.0173 18.1919 17.8093 18.0293 17.6417 17.8291C17.5044 17.6541 17.4322 17.4369 17.4375 17.2145C17.4375 16.8229 17.6458 16.4937 18.0729 16.2062C18.5146 15.9083 19.1125 15.7583 19.8458 15.7583C20.6375 15.7583 21.2125 15.8916 21.5562 16.1604C21.9104 16.4374 22.2188 16.8312 22.4729 17.3312C22.6938 17.7229 22.8917 17.9937 23.0854 18.1645C23.2917 18.352 23.5875 18.4499 23.9667 18.4499C24.3854 18.4499 24.7375 18.2999 25.0188 17.9979C25.2868 17.7272 25.4379 17.3621 25.4396 16.9812C25.4396 16.5895 25.3292 16.1833 25.1187 15.7812C24.8691 15.3337 24.531 14.9417 24.125 14.6291C23.62 14.2386 23.0472 13.9447 22.4354 13.7624C21.6604 13.5317 20.8543 13.4221 20.0458 13.4374C18.9 13.4374 17.8896 13.5999 17.0396 13.9249C16.1792 14.2541 15.5104 14.7333 15.0521 15.3479C14.5913 15.962 14.3467 16.7114 14.3562 17.4791C14.3562 18.3124 14.5792 19.0208 15.0187 19.5874C15.45 20.1458 16.0438 20.5916 16.7771 20.9145C17.4979 21.227 18.3979 21.5041 19.4625 21.7395C20.2417 21.9062 20.875 22.0687 21.3396 22.2187C21.7854 22.3604 22.1542 22.5687 22.4333 22.8374C22.5659 22.9673 22.6695 23.1237 22.7373 23.2964C22.8052 23.4691 22.8358 23.6542 22.8271 23.8395C22.8271 24.3645 22.5792 24.7916 22.0708 25.1541C21.5479 25.5208 20.8542 25.7041 20.0083 25.7041C19.3917 25.7041 18.8937 25.6145 18.5208 25.4312C18.1839 25.2777 17.8894 25.0446 17.6625 24.752C17.4261 24.4174 17.229 24.0567 17.075 23.677C16.9453 23.3339 16.7395 23.0248 16.4729 22.7729C16.2239 22.5566 15.9026 22.4421 15.5729 22.452C15.3765 22.4458 15.1807 22.4786 14.997 22.5483C14.8132 22.618 14.645 22.7233 14.5021 22.8583C14.3657 22.986 14.2573 23.1406 14.1838 23.3124C14.1103 23.4842 14.0733 23.6693 14.075 23.8562C14.075 24.4708 14.2958 25.1145 14.7312 25.7562C15.1625 26.3999 15.7292 26.9166 16.4187 27.2978C17.3813 27.8229 18.6146 28.0874 20.0854 28.0874C21.3104 28.0874 22.3854 27.8916 23.2854 27.5104C24.1917 27.1229 24.8917 26.5749 25.3646 25.8874C25.8395 25.1957 26.0897 24.3744 26.0812 23.5354C26.0812 22.8104 25.9417 22.1854 25.6646 21.6791C25.3857 21.1746 24.9891 20.7451 24.5083 20.427ZM20 0.735352C8.95417 0.735352 0 9.68952 0 20.7354C0 31.7812 8.95417 40.7354 20 40.7354C31.0458 40.7354 40 31.7812 40 20.7354C40 9.68952 31.0458 0.735352 20 0.735352ZM24.7937 31.9333C23.7792 31.9333 22.8229 31.6729 21.9854 31.2083C21.3677 31.3284 20.7397 31.3884 20.1104 31.3874C14.4583 31.3874 9.87292 26.6666 9.87292 20.852C9.87292 20.1229 9.94583 19.4145 10.0812 18.7312C9.54362 17.7919 9.26201 16.728 9.26458 15.6458C9.26458 12.2729 11.9229 9.53327 15.2042 9.53327C16.3646 9.53327 17.4458 9.8791 18.3625 10.4729C18.9292 10.3708 19.5167 10.3187 20.1104 10.3187C25.7667 10.3187 30.35 15.0354 30.35 20.8541C30.35 21.627 30.2687 22.3833 30.1146 23.1124C30.5083 23.9312 30.7312 24.8499 30.7312 25.827C30.7292 29.1979 28.0729 31.9333 24.7937 31.9333Z" fill="white"/>
</svg>
