<svg width="40" height="40" viewBox="0 0 40 40" fill="none" xmlns="http://www.w3.org/2000/svg">
<path d="M23.3396 19.6523L18.6604 17.4695C18.2521 17.28 17.9167 17.4924 17.9167 17.9444V22.0559C17.9167 22.5079 18.2521 22.7204 18.6604 22.5308L23.3375 20.348C23.7479 20.1564 23.7479 19.844 23.3396 19.6523ZM20 0.00488281C8.95417 0.00488281 0 8.95694 0 20.0002C0 31.0434 8.95417 39.9955 20 39.9955C31.0458 39.9955 40 31.0434 40 20.0002C40 8.95694 31.0458 0.00488281 20 0.00488281ZM20 28.1233C9.7625 28.1233 9.58333 27.2006 9.58333 20.0002C9.58333 12.7998 9.7625 11.8771 20 11.8771C30.2375 11.8771 30.4167 12.7998 30.4167 20.0002C30.4167 27.2006 30.2375 28.1233 20 28.1233Z" fill="white"/>
</svg>
