<svg width="40" height="40" viewBox="0 0 40 40" fill="none" xmlns="http://www.w3.org/2000/svg">
<path d="M24.5083 19.6917C23.9638 19.3402 23.3745 19.0634 22.7563 18.8687C22.0122 18.627 21.2564 18.4232 20.4917 18.2583C20.0176 18.1492 19.546 18.0297 19.0771 17.9C18.7913 17.8195 18.5148 17.7092 18.2521 17.5708C18.0173 17.4566 17.8093 17.294 17.6417 17.0938C17.5044 16.9188 17.4322 16.7015 17.4375 16.4792C17.4375 16.0875 17.6458 15.7583 18.0729 15.4708C18.5146 15.1729 19.1125 15.0229 19.8458 15.0229C20.6375 15.0229 21.2125 15.1562 21.5562 15.425C21.9104 15.7021 22.2188 16.0958 22.4729 16.5958C22.6938 16.9875 22.8917 17.2583 23.0854 17.4292C23.2917 17.6167 23.5875 17.7146 23.9667 17.7146C24.3854 17.7146 24.7375 17.5646 25.0188 17.2625C25.2868 16.9918 25.4379 16.6268 25.4396 16.2458C25.4396 15.8542 25.3292 15.4479 25.1187 15.0458C24.8691 14.5983 24.531 14.2064 24.125 13.8937C23.62 13.5032 23.0472 13.2094 22.4354 13.0271C21.6604 12.7964 20.8543 12.6868 20.0458 12.7021C18.9 12.7021 17.8896 12.8646 17.0396 13.1896C16.1792 13.5187 15.5104 13.9979 15.0521 14.6125C14.5913 15.2267 14.3467 15.976 14.3562 16.7438C14.3562 17.5771 14.5792 18.2854 15.0187 18.8521C15.45 19.4104 16.0438 19.8563 16.7771 20.1792C17.4979 20.4917 18.3979 20.7688 19.4625 21.0042C20.2417 21.1708 20.875 21.3333 21.3396 21.4833C21.7854 21.625 22.1542 21.8333 22.4333 22.1021C22.5659 22.2319 22.6695 22.3883 22.7373 22.561C22.8052 22.7337 22.8358 22.9188 22.8271 23.1042C22.8271 23.6292 22.5792 24.0562 22.0708 24.4188C21.5479 24.7854 20.8542 24.9688 20.0083 24.9688C19.3917 24.9688 18.8937 24.8792 18.5208 24.6958C18.1839 24.5423 17.8894 24.3092 17.6625 24.0167C17.4261 23.6821 17.229 23.3213 17.075 22.9417C16.9453 22.5986 16.7395 22.2894 16.4729 22.0375C16.2239 21.8213 15.9026 21.7067 15.5729 21.7167C15.3765 21.7105 15.1807 21.7432 14.997 21.8129C14.8132 21.8826 14.645 21.988 14.5021 22.1229C14.3657 22.2506 14.2573 22.4053 14.1838 22.5771C14.1103 22.7488 14.0733 22.934 14.075 23.1208C14.075 23.7354 14.2958 24.3792 14.7312 25.0208C15.1625 25.6646 15.7292 26.1812 16.4187 26.5625C17.3813 27.0875 18.6146 27.3521 20.0854 27.3521C21.3104 27.3521 22.3854 27.1562 23.2854 26.775C24.1917 26.3875 24.8917 25.8396 25.3646 25.1521C25.8395 24.4603 26.0897 23.639 26.0812 22.8C26.0812 22.075 25.9417 21.45 25.6646 20.9438C25.3857 20.4393 24.9891 20.0097 24.5083 19.6917ZM20 0C8.95417 0 0 8.95417 0 20C0 31.0458 8.95417 40 20 40C31.0458 40 40 31.0458 40 20C40 8.95417 31.0458 0 20 0ZM24.7937 31.1979C23.7792 31.1979 22.8229 30.9375 21.9854 30.4729C21.3677 30.593 20.7397 30.653 20.1104 30.6521C14.4583 30.6521 9.87292 25.9312 9.87292 20.1167C9.87292 19.3875 9.94583 18.6792 10.0812 17.9958C9.54362 17.0566 9.26201 15.9926 9.26458 14.9104C9.26458 11.5375 11.9229 8.79792 15.2042 8.79792C16.3646 8.79792 17.4458 9.14375 18.3625 9.7375C18.9292 9.63542 19.5167 9.58333 20.1104 9.58333C25.7667 9.58333 30.35 14.3 30.35 20.1187C30.35 20.8917 30.2687 21.6479 30.1146 22.3771C30.5083 23.1958 30.7312 24.1146 30.7312 25.0917C30.7292 28.4625 28.0729 31.1979 24.7937 31.1979Z" fill="white"/>
</svg>
