<svg width="30" height="31" viewBox="0 0 30 31" fill="none" xmlns="http://www.w3.org/2000/svg">
<path d="M22.2031 19.1345C22.2031 20.4483 22.5766 20.9723 23.5531 20.9723C25.7297 20.9723 27.1156 18.196 27.1156 13.5788C27.1156 6.52169 21.9781 3.14326 15.5641 3.14326C8.96563 3.14326 2.96406 7.57275 2.96406 15.9437C2.96406 23.9394 8.21406 28.2938 16.2766 28.2938C19.0141 28.2938 20.8516 27.9935 23.6625 27.055L24.2656 29.5685C21.4906 30.471 18.525 30.7322 16.2391 30.7322C5.66406 30.7322 0 24.9138 0 15.9422C0 6.8955 6.56406 0.739258 15.6016 0.739258C25.0141 0.739258 30 6.36997 30 13.277C30 19.1329 28.1641 23.6 22.3891 23.6C19.7625 23.6 18.0391 22.5489 17.8141 20.22C17.1391 22.8101 15.3391 23.6 12.9 23.6C9.6375 23.6 6.9 21.0833 6.9 16.0173C6.9 10.9121 9.30156 7.75888 13.6141 7.75888C15.9016 7.75888 17.3266 8.65979 17.9609 10.0862L19.05 8.09672H22.2V19.1345H22.2031ZM17.5922 14.1795C17.5922 12.1164 16.0531 11.2515 14.7781 11.2515C13.3906 11.2515 11.8547 12.3761 11.8547 15.681C11.8547 18.3086 13.0172 19.7726 14.7781 19.7726C16.0156 19.7726 17.5922 18.9843 17.5922 16.8071V14.1795Z" fill="white"/>
</svg>
