<svg width="40" height="41" viewBox="0 0 40 41" fill="none" xmlns="http://www.w3.org/2000/svg">
<path d="M20 0.735352C8.96 0.735352 0 9.69535 0 20.7354C0 31.7754 8.96 40.7354 20 40.7354C31.04 40.7354 40 31.7754 40 20.7354C40 9.69535 31.04 0.735352 20 0.735352ZM29.28 14.3354C28.98 17.4954 27.68 25.1754 27.02 28.7154C26.74 30.2154 26.18 30.7154 25.66 30.7754C24.5 30.8754 23.62 30.0154 22.5 29.2754C20.74 28.1154 19.74 27.3954 18.04 26.2754C16.06 24.9754 17.34 24.2554 18.48 23.0954C18.78 22.7954 23.9 18.1354 24 17.7154C24.0139 17.6517 24.012 17.5857 23.9946 17.523C23.9772 17.4602 23.9447 17.4027 23.9 17.3554C23.78 17.2554 23.62 17.2954 23.48 17.3154C23.3 17.3554 20.5 19.2154 15.04 22.8954C14.24 23.4354 13.52 23.7154 12.88 23.6954C12.16 23.6754 10.8 23.2954 9.78 22.9554C8.52 22.5554 7.54 22.3354 7.62 21.6354C7.66 21.2754 8.16 20.9153 9.1 20.5354C14.94 17.9953 18.82 16.3154 20.76 15.5154C26.32 13.1954 27.46 12.7954 28.22 12.7954C28.38 12.7954 28.76 12.8354 29 13.0354C29.2 13.1954 29.26 13.4154 29.28 13.5754C29.26 13.6954 29.3 14.0554 29.28 14.3354Z" fill="white"/>
</svg>
