<svg width="40" height="40" viewBox="0 0 40 40" fill="none" xmlns="http://www.w3.org/2000/svg">
<path d="M20 0.00488281C8.95417 0.00488281 0 8.95694 0 20.0002C0 31.0434 8.95417 39.9955 20 39.9955C31.0458 39.9955 40 31.0434 40 20.0002C40 8.95694 31.0458 0.00488281 20 0.00488281ZM29.1687 16.1469C28.1104 22.2205 22.1938 27.3672 20.4167 28.5419C18.6375 29.7125 17.0125 28.0691 16.425 26.8257C15.75 25.4052 13.7312 17.7174 13.2021 17.0779C12.6729 16.4406 11.0854 17.7174 11.0854 17.7174L10.3167 16.6885C10.3167 16.6885 13.5396 12.7665 15.9917 12.2791C18.5917 11.7584 18.5875 16.3427 19.2125 18.89C19.8188 21.354 20.225 22.762 20.7521 22.762C21.2812 22.762 22.2917 21.3915 23.3958 19.2837C24.5042 17.1758 23.35 15.3138 21.1854 16.6385C22.05 11.348 30.2271 10.0733 29.1687 16.1469Z" fill="white"/>
</svg>
