<svg width="40" height="41" viewBox="0 0 40 41" fill="none" xmlns="http://www.w3.org/2000/svg">
<path d="M26.25 20.7355C26.25 22.3927 25.5915 23.9821 24.4194 25.1539C23.2473 26.3257 21.6576 26.9841 20 26.9841C18.3424 26.9841 16.7527 26.3257 15.5806 25.1539C14.4085 23.9821 13.75 22.3927 13.75 20.7355C13.75 20.3794 13.7875 20.0315 13.8521 19.6941H11.6667V28.0192C11.6667 28.5983 12.1354 29.0669 12.7146 29.0669H27.2875C27.5651 29.0663 27.8311 28.9557 28.0271 28.7593C28.2232 28.5629 28.3333 28.2967 28.3333 28.0192V19.6941H26.1479C26.2125 20.0315 26.25 20.3794 26.25 20.7355ZM20 24.9012C20.5473 24.9011 21.0892 24.7932 21.5948 24.5836C22.1004 24.3741 22.5598 24.0671 22.9467 23.6801C23.3336 23.2931 23.6405 22.8336 23.8498 22.3281C24.0591 21.8225 24.1668 21.2806 24.1667 20.7334C24.1665 20.1863 24.0586 19.6445 23.849 19.139C23.6394 18.6335 23.3323 18.1742 22.9452 17.7874C22.5581 17.4006 22.0986 17.0938 21.5929 16.8845C21.0872 16.6753 20.5452 16.5676 19.9979 16.5678C18.8926 16.568 17.8326 17.0073 17.0512 17.7889C16.2698 18.5705 15.831 19.6304 15.8312 20.7355C15.8315 21.8406 16.2709 22.9003 17.0527 23.6815C17.8345 24.4628 18.8947 24.9015 20 24.9012ZM25 16.3616H27.4979C27.6639 16.3616 27.8231 16.2958 27.9406 16.1787C28.0581 16.0615 28.1244 15.9026 28.125 15.7367V13.2394C28.125 13.0731 28.0589 12.9136 27.9413 12.7961C27.8237 12.6785 27.6642 12.6124 27.4979 12.6124H25C24.8337 12.6124 24.6742 12.6785 24.5566 12.7961C24.439 12.9136 24.3729 13.0731 24.3729 13.2394V15.7367C24.375 16.0804 24.6562 16.3616 25 16.3616ZM20 0.740234C14.6957 0.740234 9.60859 2.84687 5.85786 6.59672C2.10714 10.3466 0 15.4324 0 20.7355C0 26.0386 2.10714 31.1245 5.85786 34.8743C9.60859 38.6242 14.6957 40.7308 20 40.7308C22.6264 40.7308 25.2272 40.2136 27.6537 39.2088C30.0802 38.2039 32.285 36.7311 34.1421 34.8743C35.9993 33.0176 37.4725 30.8133 38.4776 28.3874C39.4827 25.9615 40 23.3613 40 20.7355C40 18.1097 39.4827 15.5096 38.4776 13.0837C37.4725 10.6577 35.9993 8.45345 34.1421 6.59672C32.285 4.73998 30.0802 3.26714 27.6537 2.26229C25.2272 1.25743 22.6264 0.740234 20 0.740234ZM30.4167 28.8357C30.4167 30.1083 29.375 31.1497 28.1021 31.1497H11.8979C10.625 31.1497 9.58333 30.1083 9.58333 28.8357V12.6353C9.58333 11.3627 10.625 10.3213 11.8979 10.3213H28.1021C29.375 10.3213 30.4167 11.3627 30.4167 12.6353V28.8357Z" fill="white"/>
</svg>
