<svg width="40" height="41" viewBox="0 0 40 41" fill="none" xmlns="http://www.w3.org/2000/svg">
<path d="M20 0.740234C8.95417 0.740234 0 9.69229 0 20.7355C0 31.7788 8.95417 40.7308 20 40.7308C31.0458 40.7308 40 31.7788 40 20.7355C40 9.69229 31.0458 0.740234 20 0.740234ZM29.1687 16.8823C28.1104 22.9558 22.1938 28.1025 20.4167 29.2773C18.6375 30.4478 17.0125 28.8045 16.425 27.561C15.75 26.1405 13.7312 18.4527 13.2021 17.8133C12.6729 17.1759 11.0854 18.4527 11.0854 18.4527L10.3167 17.4238C10.3167 17.4238 13.5396 13.5018 15.9917 13.0144C18.5917 12.4937 18.5875 17.0781 19.2125 19.6254C19.8188 22.0894 20.225 23.4974 20.7521 23.4974C21.2812 23.4974 22.2917 22.1269 23.3958 20.019C24.5042 17.9112 23.35 16.0491 21.1854 17.3738C22.05 12.0834 30.2271 10.8087 29.1687 16.8823Z" fill="white"/>
</svg>
